<svg xmlns="http://www.w3.org/2000/svg" width="237.001" height="105.999" viewBox="0 0 237.001 105.999">
  <g id="グループ_18" data-name="グループ 18" transform="translate(-1963 -81)">
    <path id="長方形_1_のコピー" data-name="長方形 1 のコピー" d="M12,111A10,10,0,0,1,2,101V69A10,10,0,0,1,12,59H33V5H43V59H193V5h10V59h26a10,10,0,0,1,10,10v32a10,10,0,0,1-10,10Z" transform="translate(1961 76)" fill="#ac8463"/>
    <rect id="長方形_1" data-name="長方形 1" width="208" height="38" transform="translate(1978 142)" fill="#fff"/>
    <path id="角丸長方形_1_のコピー" data-name="角丸長方形 1 のコピー" d="M198,70.5a2.5,2.5,0,1,1,2.5,2.5A2.5,2.5,0,0,1,198,70.5Zm-164,0A2.5,2.5,0,1,1,36.5,73,2.5,2.5,0,0,1,34,70.5Z" transform="translate(1961 76)" fill="#dd6847"/>
    <text id="初級" transform="translate(2081.509 169.848)" fill="#ac8463" font-size="24" font-family="Mplus1p-Regular, 'Mplus 1p'"><tspan x="-24" y="0">初級</tspan></text>
  </g>
</svg>
